<svg width="24" height="24" viewBox="0 0 24 24" fill="none" xmlns="http://www.w3.org/2000/svg">
<path d="M21.5522 6.77327C21.4152 6.53405 21.2147 6.33742 20.9728 6.20514L12.72 1.68733C12.4994 1.56604 12.2517 1.50244 12 1.50244C11.7483 1.50244 11.5006 1.56604 11.28 1.68733L3.03 6.2042C2.78814 6.33648 2.58762 6.53311 2.45062 6.77233C2.32004 6.99874 2.25088 7.25534 2.25 7.51671V16.483C2.25061 16.7515 2.32331 17.015 2.46052 17.2459C2.59772 17.4767 2.7944 17.6665 3.03 17.7955L11.28 22.3114C11.5004 22.4332 11.7482 22.4971 12 22.4971C12.2518 22.4971 12.4996 22.4332 12.72 22.3114L20.97 17.7955C21.2056 17.6665 21.4023 17.4767 21.5395 17.2459C21.6767 17.015 21.7494 16.7515 21.75 16.483V7.51671C21.7498 7.25591 21.6816 6.99967 21.5522 6.77327ZM11.25 20.5883L8.25 18.9458V14.2498C8.2497 14.1155 8.21334 13.9838 8.14474 13.8684C8.07614 13.7529 7.9778 13.658 7.86 13.5936L3.75 11.3436V8.34358L11.25 12.4498V20.5883ZM12 11.1448L4.56187 7.07233L7.79437 5.30327L11.6381 7.40795C11.7485 7.46835 11.8723 7.5 11.9981 7.5C12.1239 7.5 12.2477 7.46835 12.3581 7.40795L16.2019 5.30327L19.4344 7.07233L12 11.1448ZM20.25 11.3417L16.14 13.5917C16.0222 13.6562 15.9239 13.7511 15.8553 13.8665C15.7867 13.9819 15.7503 14.1137 15.75 14.248V18.9439L12.75 20.5864V12.4442L20.25 8.33795V11.3417Z" fill="white"/>
</svg>
