<svg width="1440" height="148" viewBox="0 0 1440 148" fill="none" xmlns="http://www.w3.org/2000/svg">
<g opacity="0.03">
<path d="M-223.775 172.164C-233.477 172.164 -242.073 170.445 -249.565 167.006C-257.056 163.567 -262.951 158.655 -267.249 152.269C-271.424 145.76 -273.512 138.085 -273.512 129.243V125.927H-249.933V128.506C-249.933 135.383 -247.538 140.909 -242.749 145.085C-237.959 149.137 -231.635 151.164 -223.775 151.164C-215.792 151.164 -209.652 149.26 -205.354 145.453C-200.933 141.646 -198.722 136.857 -198.722 131.085V129.243C-198.722 125.313 -199.705 122.12 -201.67 119.664C-203.634 117.207 -206.275 115.427 -209.591 114.321C-212.906 113.093 -216.652 112.479 -220.828 112.479H-246.617V86.6896L-204.985 64.5842V61.6368H-270.196V40.6367H-178.827V71.9527L-217.696 92.5844V95.5318H-210.88C-205.108 95.5318 -199.52 96.6985 -194.117 99.0318C-188.591 101.365 -184.047 104.988 -180.485 109.9C-176.924 114.69 -175.143 120.953 -175.143 128.69V130.9C-175.143 139.251 -177.169 146.558 -181.222 152.822C-185.275 158.962 -190.985 163.752 -198.354 167.19C-205.599 170.506 -214.073 172.164 -223.775 172.164ZM-119.806 169.585C-125.824 169.585 -130.736 167.743 -134.543 164.059C-138.227 160.252 -140.069 155.216 -140.069 148.953V97.3739H-162.912V78.2159H-140.069V49.8473H-116.859V78.2159H-91.8059V97.3739H-116.859V144.901C-116.859 148.585 -115.139 150.427 -111.701 150.427H-94.0165V169.585H-119.806ZM-70.7957 169.585V78.2159H-47.9534V88.5317H-44.6376C-43.2867 84.8475 -41.0762 82.1457 -38.006 80.4264C-34.813 78.7071 -31.1287 77.8475 -26.9533 77.8475H-15.9006V98.4792H-27.3217C-33.2165 98.4792 -38.0674 100.076 -41.8744 103.269C-45.6815 106.339 -47.585 111.128 -47.585 117.637V169.585H-70.7957ZM2.24142 169.585V78.2159H25.4521V169.585H2.24142ZM13.8468 67.5316C9.6713 67.5316 6.10987 66.1807 3.16248 63.4789C0.337895 60.7772 -1.0744 57.2157 -1.0744 52.7947C-1.0744 48.3736 0.337895 44.8121 3.16248 42.1104C6.10987 39.4086 9.6713 38.0577 13.8468 38.0577C18.145 38.0577 21.7065 39.4086 24.5311 42.1104C27.3556 44.8121 28.7679 48.3736 28.7679 52.7947C28.7679 57.2157 27.3556 60.7772 24.5311 63.4789C21.7065 66.1807 18.145 67.5316 13.8468 67.5316ZM70.3307 169.585L41.2253 78.2159H65.9096L87.094 152.637H90.4098L111.594 78.2159H136.279L107.173 169.585H70.3307ZM191.027 172.164C181.939 172.164 173.895 170.26 166.895 166.453C160.018 162.524 154.614 157.059 150.684 150.059C146.877 142.936 144.974 134.585 144.974 125.006V122.795C144.974 113.216 146.877 104.927 150.684 97.9266C154.492 90.8037 159.834 85.3387 166.711 81.5317C173.588 77.6018 181.571 75.6369 190.658 75.6369C199.623 75.6369 207.422 77.6632 214.053 81.7159C220.685 85.6458 225.843 91.1721 229.527 98.295C233.211 105.295 235.054 113.462 235.054 122.795V130.716H168.553C168.799 136.979 171.132 142.076 175.553 146.006C179.974 149.936 185.378 151.901 191.764 151.901C198.273 151.901 203.062 150.488 206.132 147.664C209.202 144.839 211.536 141.708 213.132 138.269L232.106 148.216C230.387 151.409 227.869 154.909 224.553 158.716C221.36 162.401 217.062 165.594 211.659 168.295C206.255 170.874 199.378 172.164 191.027 172.164ZM168.737 113.4H211.474C210.983 108.12 208.834 103.883 205.027 100.69C201.343 97.4967 196.492 95.9002 190.474 95.9002C184.211 95.9002 179.237 97.4967 175.553 100.69C171.869 103.883 169.597 108.12 168.737 113.4Z" fill="white"/>
<rect x="582.641" y="273.417" width="259.97" height="259.97" rx="129.985" transform="rotate(180 582.641 273.417)" fill="#C7FF01"/>
<rect x="582.641" y="273.417" width="259.97" height="259.97" rx="129.985" transform="rotate(180 582.641 273.417)" stroke="#19222B" stroke-width="26.8934"/>
<rect x="546.786" y="273.417" width="188.254" height="188.254" rx="94.127" transform="rotate(180 546.786 273.417)" fill="#C7FF01"/>
<rect x="546.786" y="273.417" width="188.254" height="188.254" rx="94.127" transform="rotate(180 546.786 273.417)" stroke="#19222B" stroke-width="26.8934"/>
<rect x="510.927" y="201.703" width="116.538" height="116.538" rx="58.2691" transform="rotate(180 510.927 201.703)" fill="#C7FF01"/>
<rect x="510.927" y="201.703" width="116.538" height="116.538" rx="58.2691" transform="rotate(180 510.927 201.703)" stroke="#19222B" stroke-width="26.8934"/>
<path d="M663.775 172.164C654.073 172.164 645.476 170.445 637.985 167.006C630.494 163.567 624.599 158.655 620.301 152.269C616.125 145.76 614.038 138.085 614.038 129.243V125.927H637.617V128.506C637.617 135.383 640.011 140.909 644.801 145.085C649.591 149.137 655.915 151.164 663.775 151.164C671.757 151.164 677.898 149.26 682.196 145.453C686.617 141.646 688.828 136.857 688.828 131.085V129.243C688.828 125.313 687.845 122.12 685.88 119.664C683.915 117.207 681.275 115.427 677.959 114.321C674.643 113.093 670.898 112.479 666.722 112.479H640.933V86.6896L682.564 64.5842V61.6368H617.353V40.6367H708.723V71.9527L669.854 92.5844V95.5318H676.67C682.442 95.5318 688.029 96.6985 693.433 99.0318C698.959 101.365 703.503 104.988 707.065 109.9C710.626 114.69 712.407 120.953 712.407 128.69V130.9C712.407 139.251 710.38 146.558 706.328 152.822C702.275 158.962 696.565 163.752 689.196 167.19C681.95 170.506 673.477 172.164 663.775 172.164ZM767.744 169.585C761.726 169.585 756.814 167.743 753.007 164.059C749.323 160.252 747.48 155.216 747.48 148.953V97.3739H724.638V78.2159H747.48V49.8473H770.691V78.2159H795.744V97.3739H770.691V144.901C770.691 148.585 772.41 150.427 775.849 150.427H793.533V169.585H767.744ZM816.754 169.585V78.2159H839.596V88.5317H842.912C844.263 84.8475 846.474 82.1457 849.544 80.4264C852.737 78.7071 856.421 77.8475 860.597 77.8475H871.649V98.4792H860.228C854.333 98.4792 849.482 100.076 845.675 103.269C841.868 106.339 839.965 111.128 839.965 117.637V169.585H816.754ZM889.791 169.585V78.2159H913.002V169.585H889.791ZM901.397 67.5316C897.221 67.5316 893.66 66.1807 890.712 63.4789C887.888 60.7772 886.475 57.2157 886.475 52.7947C886.475 48.3736 887.888 44.8121 890.712 42.1104C893.66 39.4086 897.221 38.0577 901.397 38.0577C905.695 38.0577 909.256 39.4086 912.081 42.1104C914.905 44.8121 916.318 48.3736 916.318 52.7947C916.318 57.2157 914.905 60.7772 912.081 63.4789C909.256 66.1807 905.695 67.5316 901.397 67.5316ZM957.881 169.585L928.775 78.2159H953.459L974.644 152.637H977.96L999.144 78.2159H1023.83L994.723 169.585H957.881ZM1078.58 172.164C1069.49 172.164 1061.44 170.26 1054.44 166.453C1047.57 162.524 1042.16 157.059 1038.23 150.059C1034.43 142.936 1032.52 134.585 1032.52 125.006V122.795C1032.52 113.216 1034.43 104.927 1038.23 97.9266C1042.04 90.8037 1047.38 85.3387 1054.26 81.5317C1061.14 77.6018 1069.12 75.6369 1078.21 75.6369C1087.17 75.6369 1094.97 77.6632 1101.6 81.7159C1108.23 85.6458 1113.39 91.1721 1117.08 98.295C1120.76 105.295 1122.6 113.462 1122.6 122.795V130.716H1056.1C1056.35 136.979 1058.68 142.076 1063.1 146.006C1067.52 149.936 1072.93 151.901 1079.31 151.901C1085.82 151.901 1090.61 150.488 1093.68 147.664C1096.75 144.839 1099.09 141.708 1100.68 138.269L1119.66 148.216C1117.94 151.409 1115.42 154.909 1112.1 158.716C1108.91 162.401 1104.61 165.594 1099.21 168.295C1093.8 170.874 1086.93 172.164 1078.58 172.164ZM1056.29 113.4H1099.02C1098.53 108.12 1096.38 103.883 1092.58 100.69C1088.89 97.4967 1084.04 95.9002 1078.02 95.9002C1071.76 95.9002 1066.79 97.4967 1063.1 100.69C1059.42 103.883 1057.15 108.12 1056.29 113.4Z" fill="white"/>
<rect x="1470.19" y="273.417" width="259.97" height="259.97" rx="129.985" transform="rotate(180 1470.19 273.417)" fill="#C7FF01"/>
<rect x="1470.19" y="273.417" width="259.97" height="259.97" rx="129.985" transform="rotate(180 1470.19 273.417)" stroke="#19222B" stroke-width="26.8934"/>
<rect x="1434.34" y="273.417" width="188.254" height="188.254" rx="94.127" transform="rotate(180 1434.34 273.417)" fill="#C7FF01"/>
<rect x="1434.34" y="273.417" width="188.254" height="188.254" rx="94.127" transform="rotate(180 1434.34 273.417)" stroke="#19222B" stroke-width="26.8934"/>
<rect x="1398.48" y="201.703" width="116.538" height="116.538" rx="58.2691" transform="rotate(180 1398.48 201.703)" fill="#C7FF01"/>
<rect x="1398.48" y="201.703" width="116.538" height="116.538" rx="58.2691" transform="rotate(180 1398.48 201.703)" stroke="#19222B" stroke-width="26.8934"/>
</g>
</svg>
