<svg width="2597" height="148" viewBox="0 0 2597 148" fill="none" xmlns="http://www.w3.org/2000/svg">
<g opacity="0.03" clip-path="url(#clip0_280_175)">
<rect x="273.417" y="273.417" width="259.97" height="259.97" rx="129.985" transform="rotate(180 273.417 273.417)" fill="#C7FF01"/>
<rect x="273.417" y="273.417" width="259.97" height="259.97" rx="129.985" transform="rotate(180 273.417 273.417)" stroke="#19222B" stroke-width="26.8934"/>
<rect x="237.561" y="273.417" width="188.254" height="188.254" rx="94.127" transform="rotate(180 237.561 273.417)" fill="#C7FF01"/>
<rect x="237.561" y="273.417" width="188.254" height="188.254" rx="94.127" transform="rotate(180 237.561 273.417)" stroke="#19222B" stroke-width="26.8934"/>
<rect x="201.703" y="201.703" width="116.538" height="116.538" rx="58.2691" transform="rotate(180 201.703 201.703)" fill="#C7FF01"/>
<rect x="201.703" y="201.703" width="116.538" height="116.538" rx="58.2691" transform="rotate(180 201.703 201.703)" stroke="#19222B" stroke-width="26.8934"/>
<path d="M354.551 172.164C344.849 172.164 336.252 170.445 328.761 167.006C321.27 163.567 315.375 158.655 311.077 152.269C306.901 145.76 304.813 138.085 304.813 129.243V125.927H328.393V128.506C328.393 135.383 330.787 140.909 335.577 145.085C340.366 149.137 346.691 151.164 354.551 151.164C362.533 151.164 368.674 149.26 372.972 145.453C377.393 141.646 379.604 136.857 379.604 131.085V129.243C379.604 125.313 378.621 122.12 376.656 119.664C374.691 117.207 372.051 115.427 368.735 114.321C365.419 113.093 361.674 112.479 357.498 112.479H331.708V86.6896L373.34 64.5842V61.6368H308.129V40.6367H399.498V71.9527L360.63 92.5844V95.5318H367.446C373.217 95.5318 378.805 96.6985 384.209 99.0318C389.735 101.365 394.279 104.988 397.84 109.9C401.402 114.69 403.183 120.953 403.183 128.69V130.9C403.183 139.251 401.156 146.558 397.104 152.822C393.051 158.962 387.34 163.752 379.972 167.19C372.726 170.506 364.253 172.164 354.551 172.164ZM458.52 169.585C452.502 169.585 447.59 167.743 443.783 164.059C440.098 160.252 438.256 155.216 438.256 148.953V97.3739H415.414V78.2159H438.256V49.8473H461.467V78.2159H486.52V97.3739H461.467V144.901C461.467 148.585 463.186 150.427 466.625 150.427H484.309V169.585H458.52ZM507.53 169.585V78.2159H530.372V88.5317H533.688C535.039 84.8475 537.25 82.1457 540.32 80.4264C543.513 78.7071 547.197 77.8475 551.372 77.8475H562.425V98.4792H551.004C545.109 98.4792 540.258 100.076 536.451 103.269C532.644 106.339 530.741 111.128 530.741 117.637V169.585H507.53ZM580.567 169.585V78.2159H603.778V169.585H580.567ZM592.172 67.5316C587.997 67.5316 584.436 66.1807 581.488 63.4789C578.664 60.7772 577.251 57.2157 577.251 52.7947C577.251 48.3736 578.664 44.8121 581.488 42.1104C584.436 39.4086 587.997 38.0577 592.172 38.0577C596.471 38.0577 600.032 39.4086 602.857 42.1104C605.681 44.8121 607.094 48.3736 607.094 52.7947C607.094 57.2157 605.681 60.7772 602.857 63.4789C600.032 66.1807 596.471 67.5316 592.172 67.5316ZM648.656 169.585L619.551 78.2159H644.235L665.42 152.637H668.736L689.92 78.2159H714.604L685.499 169.585H648.656ZM769.353 172.164C760.265 172.164 752.221 170.26 745.221 166.453C738.344 162.524 732.94 157.059 729.01 150.059C725.203 142.936 723.3 134.585 723.3 125.006V122.795C723.3 113.216 725.203 104.927 729.01 97.9266C732.817 90.8037 738.159 85.3387 745.037 81.5317C751.914 77.6018 759.896 75.6369 768.984 75.6369C777.949 75.6369 785.747 77.6632 792.379 81.7159C799.011 85.6458 804.169 91.1721 807.853 98.295C811.537 105.295 813.379 113.462 813.379 122.795V130.716H746.879C747.124 136.979 749.458 142.076 753.879 146.006C758.3 149.936 763.703 151.901 770.089 151.901C776.598 151.901 781.388 150.488 784.458 147.664C787.528 144.839 789.861 141.708 791.458 138.269L810.432 148.216C808.713 151.409 806.195 154.909 802.879 158.716C799.686 162.401 795.388 165.594 789.984 168.295C784.581 170.874 777.704 172.164 769.353 172.164ZM747.063 113.4H789.8C789.309 108.12 787.16 103.883 783.353 100.69C779.668 97.4967 774.818 95.9002 768.8 95.9002C762.537 95.9002 757.563 97.4967 753.879 100.69C750.195 103.883 747.923 108.12 747.063 113.4Z" fill="white"/>
<rect x="1160.97" y="273.417" width="259.97" height="259.97" rx="129.985" transform="rotate(180 1160.97 273.417)" fill="#C7FF01"/>
<rect x="1160.97" y="273.417" width="259.97" height="259.97" rx="129.985" transform="rotate(180 1160.97 273.417)" stroke="#19222B" stroke-width="26.8934"/>
<rect x="1125.11" y="273.417" width="188.254" height="188.254" rx="94.127" transform="rotate(180 1125.11 273.417)" fill="#C7FF01"/>
<rect x="1125.11" y="273.417" width="188.254" height="188.254" rx="94.127" transform="rotate(180 1125.11 273.417)" stroke="#19222B" stroke-width="26.8934"/>
<rect x="1089.25" y="201.703" width="116.538" height="116.538" rx="58.2691" transform="rotate(180 1089.25 201.703)" fill="#C7FF01"/>
<rect x="1089.25" y="201.703" width="116.538" height="116.538" rx="58.2691" transform="rotate(180 1089.25 201.703)" stroke="#19222B" stroke-width="26.8934"/>
<path d="M1242.1 172.164C1232.4 172.164 1223.8 170.445 1216.31 167.006C1208.82 163.567 1202.93 158.655 1198.63 152.269C1194.45 145.76 1192.36 138.085 1192.36 129.243V125.927H1215.94V128.506C1215.94 135.383 1218.34 140.909 1223.13 145.085C1227.92 149.137 1234.24 151.164 1242.1 151.164C1250.08 151.164 1256.22 149.26 1260.52 145.453C1264.94 141.646 1267.15 136.857 1267.15 131.085V129.243C1267.15 125.313 1266.17 122.12 1264.21 119.664C1262.24 117.207 1259.6 115.427 1256.29 114.321C1252.97 113.093 1249.22 112.479 1245.05 112.479H1219.26V86.6896L1260.89 64.5842V61.6368H1195.68V40.6367H1287.05V71.9527L1248.18 92.5844V95.5318H1255C1260.77 95.5318 1266.36 96.6985 1271.76 99.0318C1277.29 101.365 1281.83 104.988 1285.39 109.9C1288.95 114.69 1290.73 120.953 1290.73 128.69V130.9C1290.73 139.251 1288.71 146.558 1284.65 152.822C1280.6 158.962 1274.89 163.752 1267.52 167.19C1260.28 170.506 1251.8 172.164 1242.1 172.164ZM1346.07 169.585C1340.05 169.585 1335.14 167.743 1331.33 164.059C1327.65 160.252 1325.81 155.216 1325.81 148.953V97.3739H1302.96V78.2159H1325.81V49.8473H1349.02V78.2159H1374.07V97.3739H1349.02V144.901C1349.02 148.585 1350.74 150.427 1354.18 150.427H1371.86V169.585H1346.07ZM1395.08 169.585V78.2159H1417.92V88.5317H1421.24C1422.59 84.8475 1424.8 82.1457 1427.87 80.4264C1431.06 78.7071 1434.75 77.8475 1438.92 77.8475H1449.98V98.4792H1438.55C1432.66 98.4792 1427.81 100.076 1424 103.269C1420.19 106.339 1418.29 111.128 1418.29 117.637V169.585H1395.08ZM1468.12 169.585V78.2159H1491.33V169.585H1468.12ZM1479.72 67.5316C1475.55 67.5316 1471.99 66.1807 1469.04 63.4789C1466.21 60.7772 1464.8 57.2157 1464.8 52.7947C1464.8 48.3736 1466.21 44.8121 1469.04 42.1104C1471.99 39.4086 1475.55 38.0577 1479.72 38.0577C1484.02 38.0577 1487.58 39.4086 1490.41 42.1104C1493.23 44.8121 1494.64 48.3736 1494.64 52.7947C1494.64 57.2157 1493.23 60.7772 1490.41 63.4789C1487.58 66.1807 1484.02 67.5316 1479.72 67.5316ZM1536.21 169.585L1507.1 78.2159H1531.79L1552.97 152.637H1556.29L1577.47 78.2159H1602.15L1573.05 169.585H1536.21ZM1656.9 172.164C1647.82 172.164 1639.77 170.26 1632.77 166.453C1625.89 162.524 1620.49 157.059 1616.56 150.059C1612.75 142.936 1610.85 134.585 1610.85 125.006V122.795C1610.85 113.216 1612.75 104.927 1616.56 97.9266C1620.37 90.8037 1625.71 85.3387 1632.59 81.5317C1639.46 77.6018 1647.45 75.6369 1656.53 75.6369C1665.5 75.6369 1673.3 77.6632 1679.93 81.7159C1686.56 85.6458 1691.72 91.1721 1695.4 98.295C1699.09 105.295 1700.93 113.462 1700.93 122.795V130.716H1634.43C1634.67 136.979 1637.01 142.076 1641.43 146.006C1645.85 149.936 1651.25 151.901 1657.64 151.901C1664.15 151.901 1668.94 150.488 1672.01 147.664C1675.08 144.839 1677.41 141.708 1679.01 138.269L1697.98 148.216C1696.26 151.409 1693.75 154.909 1690.43 158.716C1687.24 162.401 1682.94 165.594 1677.53 168.295C1672.13 170.874 1665.25 172.164 1656.9 172.164ZM1634.61 113.4H1677.35C1676.86 108.12 1674.71 103.883 1670.9 100.69C1667.22 97.4967 1662.37 95.9002 1656.35 95.9002C1650.09 95.9002 1645.11 97.4967 1641.43 100.69C1637.74 103.883 1635.47 108.12 1634.61 113.4Z" fill="white"/>
<rect x="2048.52" y="273.417" width="259.97" height="259.97" rx="129.985" transform="rotate(180 2048.52 273.417)" fill="#C7FF01"/>
<rect x="2048.52" y="273.417" width="259.97" height="259.97" rx="129.985" transform="rotate(180 2048.52 273.417)" stroke="#19222B" stroke-width="26.8934"/>
<rect x="2012.66" y="273.417" width="188.254" height="188.254" rx="94.127" transform="rotate(180 2012.66 273.417)" fill="#C7FF01"/>
<rect x="2012.66" y="273.417" width="188.254" height="188.254" rx="94.127" transform="rotate(180 2012.66 273.417)" stroke="#19222B" stroke-width="26.8934"/>
<rect x="1976.8" y="201.703" width="116.538" height="116.538" rx="58.2691" transform="rotate(180 1976.8 201.703)" fill="#C7FF01"/>
<rect x="1976.8" y="201.703" width="116.538" height="116.538" rx="58.2691" transform="rotate(180 1976.8 201.703)" stroke="#19222B" stroke-width="26.8934"/>
<path d="M2129.65 172.164C2119.95 172.164 2111.35 170.445 2103.86 167.006C2096.37 163.567 2090.48 158.655 2086.18 152.269C2082 145.76 2079.91 138.085 2079.91 129.243V125.927H2103.49V128.506C2103.49 135.383 2105.89 140.909 2110.68 145.085C2115.47 149.137 2121.79 151.164 2129.65 151.164C2137.63 151.164 2143.77 149.26 2148.07 145.453C2152.49 141.646 2154.7 136.857 2154.7 131.085V129.243C2154.7 125.313 2153.72 122.12 2151.76 119.664C2149.79 117.207 2147.15 115.427 2143.84 114.321C2140.52 113.093 2136.77 112.479 2132.6 112.479H2106.81V86.6896L2148.44 64.5842V61.6368H2083.23V40.6367H2174.6V71.9527L2135.73 92.5844V95.5318H2142.55C2148.32 95.5318 2153.91 96.6985 2159.31 99.0318C2164.84 101.365 2169.38 104.988 2172.94 109.9C2176.5 114.69 2178.28 120.953 2178.28 128.69V130.9C2178.28 139.251 2176.26 146.558 2172.2 152.822C2168.15 158.962 2162.44 163.752 2155.07 167.19C2147.83 170.506 2139.35 172.164 2129.65 172.164ZM2233.62 169.585C2227.6 169.585 2222.69 167.743 2218.88 164.059C2215.2 160.252 2213.36 155.216 2213.36 148.953V97.3739H2190.51V78.2159H2213.36V49.8473H2236.57V78.2159H2261.62V97.3739H2236.57V144.901C2236.57 148.585 2238.29 150.427 2241.73 150.427H2259.41V169.585H2233.62ZM2282.63 169.585V78.2159H2305.47V88.5317H2308.79C2310.14 84.8475 2312.35 82.1457 2315.42 80.4264C2318.61 78.7071 2322.3 77.8475 2326.47 77.8475H2337.53V98.4792H2326.1C2320.21 98.4792 2315.36 100.076 2311.55 103.269C2307.74 106.339 2305.84 111.128 2305.84 117.637V169.585H2282.63ZM2355.67 169.585V78.2159H2378.88V169.585H2355.67ZM2367.27 67.5316C2363.1 67.5316 2359.54 66.1807 2356.59 63.4789C2353.76 60.7772 2352.35 57.2157 2352.35 52.7947C2352.35 48.3736 2353.76 44.8121 2356.59 42.1104C2359.54 39.4086 2363.1 38.0577 2367.27 38.0577C2371.57 38.0577 2375.13 39.4086 2377.96 42.1104C2380.78 44.8121 2382.19 48.3736 2382.19 52.7947C2382.19 57.2157 2380.78 60.7772 2377.96 63.4789C2375.13 66.1807 2371.57 67.5316 2367.27 67.5316ZM2423.76 169.585L2394.65 78.2159H2419.34L2440.52 152.637H2443.84L2465.02 78.2159H2489.7L2460.6 169.585H2423.76ZM2544.45 172.164C2535.37 172.164 2527.32 170.26 2520.32 166.453C2513.44 162.524 2508.04 157.059 2504.11 150.059C2500.3 142.936 2498.4 134.585 2498.4 125.006V122.795C2498.4 113.216 2500.3 104.927 2504.11 97.9266C2507.92 90.8037 2513.26 85.3387 2520.14 81.5317C2527.01 77.6018 2535 75.6369 2544.08 75.6369C2553.05 75.6369 2560.85 77.6632 2567.48 81.7159C2574.11 85.6458 2579.27 91.1721 2582.95 98.295C2586.64 105.295 2588.48 113.462 2588.48 122.795V130.716H2521.98C2522.22 136.979 2524.56 142.076 2528.98 146.006C2533.4 149.936 2538.8 151.901 2545.19 151.901C2551.7 151.901 2556.49 150.488 2559.56 147.664C2562.63 144.839 2564.96 141.708 2566.56 138.269L2585.53 148.216C2583.81 151.409 2581.3 154.909 2577.98 158.716C2574.79 162.401 2570.49 165.594 2565.08 168.295C2559.68 170.874 2552.8 172.164 2544.45 172.164ZM2522.16 113.4H2564.9C2564.41 108.12 2562.26 103.883 2558.45 100.69C2554.77 97.4967 2549.92 95.9002 2543.9 95.9002C2537.64 95.9002 2532.66 97.4967 2528.98 100.69C2525.3 103.883 2523.02 108.12 2522.16 113.4Z" fill="white"/>
</g>
<defs>
<clipPath id="clip0_280_175">
<rect width="2596.65" height="148" fill="white"/>
</clipPath>
</defs>
</svg>
