<svg width="142" height="50" viewBox="0 0 142 50" fill="none" xmlns="http://www.w3.org/2000/svg">
<rect x="46.7897" y="46.79" width="44.4889" height="44.4889" rx="22.2444" transform="rotate(180 46.7897 46.79)" fill="#C7FF01"/>
<rect x="46.7897" y="46.79" width="44.4889" height="44.4889" rx="22.2444" transform="rotate(180 46.7897 46.79)" stroke="#19222B" stroke-width="4.60229"/>
<rect x="40.6539" y="46.79" width="32.2161" height="32.2161" rx="16.108" transform="rotate(180 40.6539 46.79)" fill="#C7FF01"/>
<rect x="40.6539" y="46.79" width="32.2161" height="32.2161" rx="16.108" transform="rotate(180 40.6539 46.79)" stroke="#19222B" stroke-width="4.60229"/>
<rect x="34.5172" y="34.5173" width="19.9433" height="19.9433" rx="9.97164" transform="rotate(180 34.5172 34.5173)" fill="#C7FF01"/>
<rect x="34.5172" y="34.5173" width="19.9433" height="19.9433" rx="9.97164" transform="rotate(180 34.5172 34.5173)" stroke="#19222B" stroke-width="4.6023"/>
<path d="M60.6742 29.2433C59.0139 29.2433 57.5428 28.9491 56.2608 28.3607C54.9788 27.7722 53.97 26.9316 53.2345 25.8387C52.5199 24.7249 52.1626 23.4113 52.1626 21.8982V21.3307H56.1978V21.7721C56.1978 22.949 56.6076 23.8947 57.4272 24.6093C58.2468 25.3028 59.3292 25.6496 60.6742 25.6496C62.0403 25.6496 63.0911 25.3238 63.8267 24.6723C64.5832 24.0208 64.9615 23.2012 64.9615 22.2134V21.8982C64.9615 21.2257 64.7934 20.6792 64.4571 20.2589C64.1209 19.8386 63.669 19.5338 63.1016 19.3447C62.5342 19.1345 61.8932 19.0295 61.1786 19.0295H56.7652V14.6161L63.8897 10.8331V10.3287H52.7301V6.73497H68.3662V12.0941L61.7145 15.6248V16.1292H62.8809C63.8687 16.1292 64.8249 16.3289 65.7496 16.7282C66.6954 17.1275 67.473 17.7475 68.0824 18.5881C68.6919 19.4077 68.9966 20.4796 68.9966 21.8036V22.1819C68.9966 23.611 68.6499 24.8615 67.9563 25.9333C67.2628 26.9841 66.2856 27.8037 65.0246 28.3922C63.7846 28.9596 62.3345 29.2433 60.6742 29.2433ZM78.4665 28.802C77.4367 28.802 76.5961 28.4868 75.9446 27.8563C75.3141 27.2048 74.9988 26.3431 74.9988 25.2713V16.4445H71.0898V13.1659H74.9988V8.31118H78.9709V13.1659H83.2582V16.4445H78.9709V24.5777C78.9709 25.2082 79.2651 25.5235 79.8536 25.5235H82.8799V28.802H78.4665ZM86.8537 28.802V13.1659H90.7627V14.9313H91.3302C91.5613 14.3008 91.9396 13.8385 92.465 13.5442C93.0115 13.25 93.6419 13.1029 94.3565 13.1029H96.248V16.6336H94.2934C93.2847 16.6336 92.4545 16.9068 91.803 17.4532C91.1515 17.9786 90.8258 18.7983 90.8258 19.9121V28.802H86.8537ZM99.3526 28.802V13.1659H103.325V28.802H99.3526ZM101.339 11.3375C100.624 11.3375 100.015 11.1063 99.5102 10.644C99.0269 10.1816 98.7852 9.57216 98.7852 8.81557C98.7852 8.05899 99.0269 7.44952 99.5102 6.98716C100.015 6.5248 100.624 6.29363 101.339 6.29363C102.074 6.29363 102.684 6.5248 103.167 6.98716C103.65 7.44952 103.892 8.05899 103.892 8.81557C103.892 9.57216 103.65 10.1816 103.167 10.644C102.684 11.1063 102.074 11.3375 101.339 11.3375ZM111.005 28.802L106.024 13.1659H110.248L113.874 25.9018H114.441L118.066 13.1659H122.29L117.31 28.802H111.005ZM131.66 29.2433C130.104 29.2433 128.728 28.9176 127.53 28.2661C126.353 27.5936 125.428 26.6583 124.756 25.4604C124.104 24.2415 123.779 22.8124 123.779 21.1731V20.7948C123.779 19.1556 124.104 17.737 124.756 16.539C125.407 15.3201 126.322 14.3849 127.498 13.7334C128.675 13.0608 130.041 12.7246 131.597 12.7246C133.131 12.7246 134.465 13.0714 135.6 13.7649C136.735 14.4374 137.618 15.3831 138.248 16.6021C138.879 17.8 139.194 19.1976 139.194 20.7948V22.1504H127.814C127.856 23.2222 128.255 24.0944 129.012 24.7669C129.768 25.4394 130.693 25.7757 131.786 25.7757C132.9 25.7757 133.719 25.534 134.245 25.0506C134.77 24.5672 135.169 24.0313 135.443 23.4429L138.69 25.1452C138.395 25.6916 137.964 26.2906 137.397 26.9421C136.851 27.5726 136.115 28.119 135.19 28.5813C134.266 29.0227 133.089 29.2433 131.66 29.2433ZM127.845 19.1871H135.159C135.075 18.2834 134.707 17.5583 134.055 17.0119C133.425 16.4655 132.595 16.1923 131.565 16.1923C130.493 16.1923 129.642 16.4655 129.012 17.0119C128.381 17.5583 127.992 18.2834 127.845 19.1871Z" fill="white"/>
<path d="M52.8647 44.2896V43.4249H53.7114V38.8494H52.8647V37.9847H56.0622C56.4405 37.9847 56.7707 38.0507 57.053 38.1828C57.3352 38.3089 57.5544 38.4921 57.7105 38.7323C57.8726 38.9664 57.9537 39.2457 57.9537 39.5699V39.66C57.9537 39.9482 57.8996 40.1854 57.7915 40.3715C57.6835 40.5577 57.5514 40.7018 57.3952 40.8039C57.2451 40.9059 57.101 40.978 56.9629 41.02V41.1641C57.101 41.2002 57.2481 41.2722 57.4042 41.3803C57.5664 41.4824 57.7015 41.6265 57.8096 41.8126C57.9236 41.9988 57.9807 42.242 57.9807 42.5422V42.6323C57.9807 42.9805 57.8996 43.2778 57.7375 43.524C57.5754 43.7701 57.3502 43.9593 57.062 44.0914C56.7798 44.2235 56.4525 44.2896 56.0802 44.2896H52.8647ZM54.6931 43.4069H55.9631C56.2874 43.4069 56.5426 43.3288 56.7287 43.1727C56.9149 43.0166 57.0079 42.8004 57.0079 42.5242V42.4431C57.0079 42.1669 56.9149 41.9507 56.7287 41.7946C56.5486 41.6385 56.2934 41.5604 55.9631 41.5604H54.6931V43.4069ZM54.6931 40.6688H55.9631C56.2694 40.6688 56.5156 40.5937 56.7017 40.4436C56.8878 40.2875 56.9809 40.0773 56.9809 39.8131V39.723C56.9809 39.4588 56.8878 39.2517 56.7017 39.1015C56.5216 38.9454 56.2754 38.8674 55.9631 38.8674H54.6931V40.6688ZM59.6117 46.0909V45.2803H62.0886C62.2568 45.2803 62.3408 45.1902 62.3408 45.0101V43.6411H62.1967C62.1427 43.7611 62.0586 43.8782 61.9445 43.9923C61.8364 44.1004 61.6893 44.1905 61.5032 44.2625C61.317 44.3346 61.0829 44.3706 60.8006 44.3706C60.4644 44.3706 60.1641 44.2956 59.8999 44.1454C59.6357 43.9953 59.4286 43.7822 59.2785 43.5059C59.1283 43.2297 59.0533 42.9025 59.0533 42.5242V39.8491H59.981V42.4521C59.981 42.8364 60.0771 43.1216 60.2692 43.3078C60.4614 43.4879 60.7286 43.578 61.0708 43.578C61.4491 43.578 61.7524 43.4519 61.9805 43.1997C62.2147 42.9475 62.3318 42.5812 62.3318 42.1009V39.8491H63.2595V45.1993C63.2595 45.4695 63.1785 45.6856 63.0163 45.8478C62.8602 46.0099 62.6441 46.0909 62.3678 46.0909H59.6117ZM66.8996 44.2896V37.9847H68.728L70.1061 43.6411H70.2502L71.6283 37.9847H73.4567V44.2896H72.5109V38.6692H72.3668L70.9978 44.2896H69.3585L67.9894 38.6692H67.8453V44.2896H66.8996ZM75.3123 46.0909V45.2803H77.7892C77.9574 45.2803 78.0414 45.1902 78.0414 45.0101V43.6411H77.8973C77.8433 43.7611 77.7592 43.8782 77.6451 43.9923C77.537 44.1004 77.3899 44.1905 77.2038 44.2625C77.0176 44.3346 76.7834 44.3706 76.5012 44.3706C76.165 44.3706 75.8647 44.2956 75.6005 44.1454C75.3363 43.9953 75.1292 43.7822 74.9791 43.5059C74.8289 43.2297 74.7539 42.9025 74.7539 42.5242V39.8491H75.6816V42.4521C75.6816 42.8364 75.7777 43.1216 75.9698 43.3078C76.162 43.4879 76.4292 43.578 76.7714 43.578C77.1497 43.578 77.453 43.4519 77.6811 43.1997C77.9153 42.9475 78.0324 42.5812 78.0324 42.1009V39.8491H78.9601V45.1993C78.9601 45.4695 78.8791 45.6856 78.7169 45.8478C78.5608 46.0099 78.3447 46.0909 78.0684 46.0909H75.3123ZM81.5925 44.2896L79.8361 37.9847H80.8449L82.3761 43.6771H82.4932L84.0154 37.9847H85.0241L83.2768 44.2896H81.5925ZM86.9871 44.4156C86.6688 44.4156 86.3836 44.3616 86.1314 44.2535C85.8852 44.1454 85.6871 43.9863 85.537 43.7762C85.3929 43.566 85.3208 43.3108 85.3208 43.0106C85.3208 42.7043 85.3929 42.4521 85.537 42.254C85.6871 42.0498 85.8882 41.8967 86.1404 41.7946C86.3986 41.6925 86.6899 41.6415 87.0141 41.6415H88.3651V41.3533C88.3651 41.0951 88.2871 40.8879 88.131 40.7318C87.9748 40.5757 87.7347 40.4976 87.4104 40.4976C87.0922 40.4976 86.849 40.5727 86.6808 40.7228C86.5127 40.8729 86.4016 41.0681 86.3476 41.3082L85.4829 41.029C85.555 40.7888 85.6691 40.5727 85.8252 40.3805C85.9873 40.1824 86.2005 40.0233 86.4647 39.9032C86.7289 39.7831 87.0471 39.723 87.4194 39.723C87.9959 39.723 88.4492 39.8701 88.7795 40.1644C89.1097 40.4586 89.2749 40.8759 89.2749 41.4163V43.2447C89.2749 43.4249 89.3589 43.515 89.527 43.515H89.9053V44.2896H89.2118C89.0016 44.2896 88.8305 44.2355 88.6984 44.1274C88.5663 44.0193 88.5003 43.8722 88.5003 43.6861V43.6591H88.3651C88.3171 43.7491 88.2451 43.8542 88.149 43.9743C88.0529 44.0944 87.9118 44.1995 87.7257 44.2896C87.5395 44.3736 87.2933 44.4156 86.9871 44.4156ZM87.1222 43.6501C87.4945 43.6501 87.7947 43.545 88.0229 43.3348C88.2511 43.1186 88.3651 42.8244 88.3651 42.4521V42.3621H87.0681C86.822 42.3621 86.6238 42.4161 86.4737 42.5242C86.3236 42.6263 86.2485 42.7794 86.2485 42.9835C86.2485 43.1877 86.3266 43.3498 86.4827 43.4699C86.6388 43.59 86.852 43.6501 87.1222 43.6501ZM90.8074 44.2896V39.8491H91.7171V40.3715H91.8612C91.9452 40.2154 92.0804 40.0773 92.2665 39.9572C92.4526 39.8371 92.7048 39.7771 93.0231 39.7771C93.3533 39.7771 93.6175 39.8461 93.8157 39.9842C94.0198 40.1163 94.173 40.2875 94.275 40.4976H94.4192C94.5212 40.2935 94.6684 40.1223 94.8605 39.9842C95.0587 39.8461 95.3379 39.7771 95.6981 39.7771C95.9864 39.7771 96.2416 39.8371 96.4637 39.9572C96.6859 40.0713 96.863 40.2454 96.9951 40.4796C97.1272 40.7078 97.1933 40.993 97.1933 41.3353V44.2896H96.2656V41.4073C96.2656 41.1371 96.1905 40.93 96.0404 40.7858C95.8963 40.6357 95.6891 40.5607 95.4189 40.5607C95.1307 40.5607 94.8995 40.6537 94.7254 40.8399C94.5513 41.026 94.4642 41.2932 94.4642 41.6415V44.2896H93.5365V41.4073C93.5365 41.1371 93.4614 40.93 93.3113 40.7858C93.1672 40.6357 92.96 40.5607 92.6898 40.5607C92.4016 40.5607 92.1704 40.6537 91.9963 40.8399C91.8222 41.026 91.7351 41.2932 91.7351 41.6415V44.2896H90.8074ZM100.35 44.4156C99.7851 44.4156 99.3167 44.2896 98.9444 44.0374C98.5722 43.7852 98.344 43.4039 98.2599 42.8935L99.1246 42.6863C99.1726 42.9325 99.2537 43.1277 99.3678 43.2718C99.4819 43.4159 99.623 43.518 99.7911 43.578C99.9652 43.638 100.151 43.6681 100.35 43.6681C100.644 43.6681 100.869 43.611 101.025 43.4969C101.187 43.3829 101.268 43.2357 101.268 43.0556C101.268 42.8755 101.193 42.7434 101.043 42.6593C100.893 42.5752 100.671 42.5062 100.377 42.4521L100.07 42.3981C99.7701 42.344 99.4969 42.266 99.2507 42.1639C99.0045 42.0618 98.8093 41.9207 98.6652 41.7406C98.5211 41.5604 98.4491 41.3293 98.4491 41.047C98.4491 40.6267 98.6052 40.3025 98.9174 40.0743C99.2297 39.8401 99.644 39.723 100.16 39.723C100.659 39.723 101.067 39.8371 101.385 40.0653C101.71 40.2875 101.92 40.5907 102.016 40.975L101.151 41.2182C101.097 40.948 100.983 40.7588 100.809 40.6507C100.635 40.5367 100.419 40.4796 100.16 40.4796C99.9082 40.4796 99.71 40.5276 99.5659 40.6237C99.4218 40.7138 99.3498 40.8429 99.3498 41.011C99.3498 41.1912 99.4188 41.3233 99.5569 41.4073C99.701 41.4914 99.8932 41.5544 100.133 41.5965L100.449 41.6505C100.767 41.7046 101.058 41.7796 101.322 41.8757C101.586 41.9718 101.794 42.1099 101.944 42.29C102.1 42.4701 102.178 42.7103 102.178 43.0106C102.178 43.4549 102.013 43.8002 101.683 44.0464C101.352 44.2926 100.908 44.4156 100.35 44.4156ZM103.262 44.2896V39.8491H104.172V40.5156H104.316C104.4 40.3355 104.55 40.1674 104.766 40.0112C104.983 39.8551 105.304 39.7771 105.73 39.7771C106.066 39.7771 106.364 39.8521 106.622 40.0022C106.886 40.1524 107.093 40.3655 107.243 40.6417C107.393 40.9119 107.469 41.2392 107.469 41.6235V44.2896H106.541V41.6955C106.541 41.3113 106.445 41.029 106.253 40.8489C106.06 40.6628 105.796 40.5697 105.46 40.5697C105.076 40.5697 104.766 40.6958 104.532 40.948C104.304 41.2002 104.19 41.5664 104.19 42.0468V44.2896H103.262ZM110.839 44.4156C110.389 44.4156 109.996 44.3226 109.659 44.1364C109.323 43.9443 109.059 43.6771 108.867 43.3348C108.681 42.9865 108.588 42.5842 108.588 42.1279V42.0198C108.588 41.5574 108.681 41.1551 108.867 40.8129C109.053 40.4646 109.311 40.1974 109.641 40.0112C109.978 39.8191 110.365 39.723 110.803 39.723C111.23 39.723 111.602 39.8191 111.92 40.0112C112.244 40.1974 112.497 40.4586 112.677 40.7949C112.857 41.1311 112.947 41.5244 112.947 41.9748V42.326H109.533C109.545 42.7163 109.674 43.0286 109.921 43.2628C110.173 43.4909 110.485 43.605 110.857 43.605C111.206 43.605 111.467 43.527 111.641 43.3708C111.821 43.2147 111.959 43.0346 112.055 42.8304L112.821 43.2267C112.737 43.3949 112.614 43.572 112.451 43.7581C112.295 43.9443 112.088 44.1004 111.83 44.2265C111.572 44.3526 111.242 44.4156 110.839 44.4156ZM109.542 41.6145H112.001C111.977 41.2782 111.857 41.017 111.641 40.8309C111.425 40.6387 111.142 40.5427 110.794 40.5427C110.446 40.5427 110.161 40.6387 109.939 40.8309C109.722 41.017 109.59 41.2782 109.542 41.6145ZM115.563 44.2896C115.293 44.2896 115.076 44.2085 114.914 44.0464C114.758 43.8842 114.68 43.6681 114.68 43.3979V40.6327H113.455V39.8491H114.68V38.381H115.608V39.8491H116.932V40.6327H115.608V43.2357C115.608 43.4159 115.692 43.5059 115.86 43.5059H116.788V44.2896H115.563Z" fill="white"/>
</svg>
