<svg width="24" height="24" viewBox="0 0 24 24" fill="none" xmlns="http://www.w3.org/2000/svg">
<path d="M9.54849 17.9196C9.12568 18.844 7.71474 21.0002 3.75005 21.0002C3.55114 21.0002 3.36037 20.9212 3.21972 20.7805C3.07907 20.6399 3.00005 20.4491 3.00005 20.2502C3.00005 16.2855 5.1563 14.8746 6.08068 14.4518C6.1703 14.4109 6.26711 14.3881 6.36555 14.3846C6.464 14.3812 6.56216 14.3971 6.65444 14.4316C6.74672 14.4661 6.8313 14.5184 6.90336 14.5855C6.97543 14.6527 7.03355 14.7334 7.07443 14.823C7.1153 14.9126 7.13812 15.0094 7.14159 15.1079C7.14505 15.2063 7.12909 15.3045 7.09461 15.3968C7.06014 15.4891 7.00783 15.5736 6.94067 15.6457C6.8735 15.7178 6.7928 15.7759 6.70318 15.8168C6.10036 16.0915 4.77005 16.9755 4.53568 19.4646C7.02474 19.2302 7.91068 17.8999 8.18349 17.2971C8.22436 17.2075 8.28249 17.1268 8.35455 17.0596C8.42661 16.9924 8.5112 16.9401 8.60348 16.9056C8.69576 16.8712 8.79392 16.8552 8.89237 16.8587C8.99081 16.8621 9.08761 16.885 9.17724 16.9258C9.26687 16.9667 9.34757 17.0248 9.41473 17.0969C9.48189 17.169 9.5342 17.2535 9.56868 17.3458C9.60315 17.4381 9.61911 17.5363 9.61565 17.6347C9.61218 17.7332 9.58936 17.83 9.54849 17.9196ZM20.986 4.41958C20.9638 4.05389 20.8085 3.70897 20.5494 3.44991C20.2904 3.19085 19.9454 3.03556 19.5797 3.01333C18.4004 2.94302 15.3863 3.05083 12.886 5.55115L8.25005 10.1908C8.18043 10.2606 8.09775 10.3159 8.00674 10.3537C7.91573 10.3915 7.81817 10.411 7.71962 10.4111C7.5206 10.4113 7.32966 10.3324 7.1888 10.1918C7.04795 10.0512 6.96872 9.86036 6.96854 9.66134C6.96837 9.46232 7.04726 9.27138 7.18786 9.13052L9.67787 6.63958C9.72999 6.58715 9.76546 6.52047 9.7798 6.44793C9.79414 6.3754 9.78671 6.30024 9.75846 6.23191C9.73021 6.16359 9.68238 6.10513 9.621 6.06391C9.55963 6.02268 9.48743 6.00052 9.41349 6.00021H6.97036C6.77278 5.99917 6.57695 6.03742 6.39428 6.11274C6.21161 6.18806 6.04573 6.29895 5.9063 6.43896L2.69068 9.65646C2.49347 9.85353 2.35509 10.1017 2.29107 10.373C2.22704 10.6444 2.23991 10.9282 2.32821 11.1926C2.41652 11.457 2.57678 11.6916 2.79101 11.8701C3.00523 12.0485 3.26494 12.1637 3.54099 12.2027L7.14755 12.7061L11.2922 16.8508L11.7957 20.4593C11.8344 20.7353 11.9496 20.9951 12.1281 21.2091C12.3067 21.4232 12.5416 21.583 12.8063 21.6705C12.9605 21.722 13.1219 21.7483 13.2844 21.7483C13.4812 21.7487 13.6761 21.7101 13.858 21.6348C14.0398 21.5595 14.2049 21.449 14.3438 21.3096L17.5613 18.094C17.7009 17.9542 17.8115 17.7883 17.8868 17.6057C17.9621 17.4231 18.0006 17.2274 18.0001 17.0299V14.5868C17.9999 14.5126 17.9778 14.4402 17.9366 14.3786C17.8953 14.3171 17.8367 14.2691 17.7682 14.2408C17.6996 14.2125 17.6243 14.2052 17.5516 14.2197C17.4789 14.2342 17.4121 14.2699 17.3597 14.3224L14.8688 16.8124C14.7959 16.8853 14.7088 16.9425 14.6129 16.9802C14.517 17.018 14.4143 17.0356 14.3113 17.0319C14.2083 17.0282 14.1072 17.0033 14.0142 16.9587C13.9212 16.9142 13.8384 16.851 13.771 16.773C13.648 16.6242 13.5854 16.4345 13.5959 16.2417C13.6063 16.0489 13.6889 15.8671 13.8272 15.7324L18.4463 11.1133C20.9485 8.61208 21.0563 5.59802 20.986 4.41771V4.41958Z" fill="white"/>
</svg>
